inDegrees=yes
name=ik_02012121_23339._orientations
DataType=double
version=3
OpenSimVersion=4.1
endheader
time	pelvis_tilt	pelvis_list	pelvis_rotation	pelvis_tx	pelvis_ty	pelvis_tz	hip_flexion_r	hip_adduction_r	hip_rotation_r	knee_angle_r	knee_angle_r_beta	ankle_angle_r	subtalar_angle_r	mtp_angle_r	hip_flexion_l	hip_adduction_l	hip_rotation_l	knee_angle_l	knee_angle_l_beta	ankle_angle_l	subtalar_angle_l	mtp_angle_l	lumbar_extension	lumbar_bending	lumbar_rotation	arm_flex_r	arm_add_r	arm_rot_r	elbow_flex_r	pro_sup_r	wrist_flex_r	wrist_dev_r	arm_flex_l	arm_add_l	arm_rot_l	elbow_flex_l	pro_sup_l	wrist_flex_l	wrist_dev_l
20.00000000000162	-37.02274709717707	7.181080981767815	2.876760996771834	0	0.9399999999999999	0	41.94894424261612	-5.382288769965456	2.843730428526555	8.239566491045386	0.1438075642057378	-5.00652122709235	0	0	45.33962619732625	-10.0171055346964	0	60.51965289026217	1.056267205099177	-5.00652122709235	0	0	0	0	0	0	-17.16064822534675	0	74.41459994081187	45.03707359091682	0	0	0	-17.16064822534675	0	74.41459994081187	45.03707359091682	0	0
20.00444444444607	-37.0208271525789	7.183610298315114	2.885001455173283	0	0.9399999999999999	0	41.94390995068404	-5.391090100756155	2.839512085296643	8.235122126608923	0.143729995413163	-5.006481042957487	0	0	45.3390394481139	-10.01701866689005	0	60.51894125259899	1.056254784678874	-5.006481042957487	0	0	0	0	0	0	-17.15867437757274	0	74.41561162867923	45.03691696660908	0	0	0	-17.15867437757274	0	74.41561162867923	45.03691696660908	0	0
20.00888888889051	-37.01370452120024	7.18710910847087	2.916748655205814	0	0.9399999999999999	0	41.9519566798452	-5.415575626854096	2.816389904200611	8.270443881036712	0.1443464763255088	-5.006421727019863	0	0	45.33824768725074	-10.01689410561547	0	60.51797994880109	1.056238006762488	-5.006421727019863	0	0	0	0	0	0	-17.15603210623942	0	74.41697680635451	45.03669664832439	0	0	0	-17.15603210623942	0	74.41697680635451	45.03669664832439	0	0
20.01333333333496	-37.00867929679255	7.202390968829846	2.950535483122315	0	0.9399999999999999	0	41.9478547500609	-5.449309478081968	2.797817956066322	8.271569547973128	0.1443661229198301	-5.006320122706934	0	0	45.33700737408318	-10.01668592531822	0	60.51649137004678	1.05621202616205	-5.006320122706934	0	0	0	0	0	0	-17.15195869416038	0	74.41911539812251	45.03633487205517	0	0	0	-17.15195869416038	0	74.41911539812251	45.03633487205517	0	0
20.0177777777794	-37.00691422108219	7.21942606639845	2.958802499775108	0	0.9399999999999999	0	41.94536027783504	-5.471051034753859	2.799928608997288	8.283304832468938	0.1445709422729403	-5.006208387741384	0	0	45.3355869451597	-10.01645456667671	0	60.51478204189659	1.056182192757833	-5.006208387741384	0	0	0	0	0	0	-17.14726134334935	0	74.42156454796424	45.03592961124884	0	0	0	-17.14726134334935	0	74.42156454796424	45.03592961124884	0	0
20.02222222222385	-37.00108704582622	7.222203661819912	2.965836517582377	0	0.9399999999999999	0	41.94840254973333	-5.475176372863539	2.79560824447818	8.288843768202973	0.1446676149385555	-5.006180346821464	0	0	45.33521626066112	-10.01639585853694	0	60.51433379382713	1.056174369353155	-5.006180346821464	0	0	0	0	0	0	-17.14602746318007	0	74.42220369343821	45.03582596533897	0	0	0	-17.14602746318007	0	74.42220369343821	45.03582596533897	0	0
20.02666666666829	-37.01854000048979	7.224932219894545	3.014366418079584	0	0.9399999999999999	0	41.94567740729517	-5.507160856269328	2.767670945984867	8.260569206660881	0.1441741307450883	-5.006127794555926	0	0	45.33449647720123	-10.01628487436085	0	60.51345670833709	1.056159061323532	-5.006127794555926	0	0	0	0	0	0	-17.14361164404345	0	74.42344476425554	45.03562872671265	0	0	0	-17.14361164404345	0	74.42344476425554	45.03562872671265	0	0
20.03111111111274	-37.02081791036292	7.219978271362174	3.019190938463382	0	0.9399999999999999	0	41.94423199121515	-5.509863210857909	2.757873552982234	8.263700994919361	0.1442287907616741	-5.006103690807361	0	0	45.33414554973431	-10.01623304365885	0	60.51302916891485	1.056151599352932	-5.006103690807361	0	0	0	0	0	0	-17.14242572192347	0	74.42404984204063	45.03553543703008	0	0	0	-17.14242572192347	0	74.42404984204063	45.03553543703008	0	0
20.03555555555718	-37.01008692232552	7.225052934752233	3.040012977400088	0	0.9399999999999999	0	41.94802895356688	-5.532476917032201	2.748438203427775	8.302287103204225	0.144902245396776	-5.006047036324368	0	0	45.33333867344866	-10.01611171474303	0	60.5120489354463	1.056134491051468	-5.006047036324368	0	0	0	0	0	0	-17.13971305965195	0	74.42544107955342	45.03531791939727	0	0	0	-17.13971305965195	0	74.42544107955342	45.03531791939727	0	0
20.04000000000163	-37.00474106840268	7.230428540605701	3.062372178176395	0	0.9399999999999999	0	41.94635523626287	-5.549474494144824	2.744533128595091	8.302256271140172	0.1449017072757431	-5.005995288882832	0	0	45.33262805395928	-10.01600211166372	0	60.51118740410855	1.056119454493015	-5.005995288882832	0	0	0	0	0	0	-17.13733569201278	0	74.4266663499656	45.03512289391596	0	0	0	-17.13733569201278	0	74.4266663499656	45.03512289391596	0	0
20.04444444444607	-37.00311180907638	7.234619321279642	3.102341818552618	0	0.9399999999999999	0	41.9412804146157	-5.57906763816377	2.725218014830072	8.296692226990386	0.144804596385603	-5.005905250183192	0	0	45.33142119965007	-10.01581274146259	0	60.50972657743517	1.056093958257763	-5.005905250183192	0	0	0	0	0	0	-17.13331225061338	0	74.42874724430486	45.03478758962509	0	0	0	-17.13331225061338	0	74.42874724430486	45.03478758962509	0	0
20.04888888889052	-36.95541837223477	7.210116691373146	3.143463743548515	0	0.9399999999999999	0	41.89195967711801	-5.59283726339546	2.670530643429286	8.305481360232651	0.144957995699077	-5.005584773140909	0	0	45.32702313950895	-10.0151390845992	0	60.50444080584012	1.056001704139921	-5.005584773140909	0	0	0	0	0	0	-17.11842749799181	0	74.43633048150755	45.03359226646884	0	0	0	-17.11842749799181	0	74.43633048150755	45.03359226646884	0	0
20.05333333333496	-36.95128837617184	7.215416323520212	3.164058181651537	0	0.9399999999999999	0	41.8959224860916	-5.609772386918548	2.659324365786753	8.314734365424565	0.14511949110538	-5.005528932682259	0	0	45.32616549613922	-10.01501695751803	0	60.5033953349722	1.055983457231042	-5.005528932682259	0	0	0	0	0	0	-17.11551091182657	0	74.43780924944932	45.03336997808055	0	0	0	-17.11551091182657	0	74.43780924944932	45.03336997808055	0	0
20.05777777777941	-36.95613596147906	7.221469927528858	3.181364904314193	0	0.9399999999999999	0	41.89168847106705	-5.627799390335221	2.650817118628367	8.291769685258876	0.1447186818248213	-5.005496781696245	0	0	45.325702454709	-10.01494794664382	0	60.50283291710355	1.055973641187462	-5.005496781696245	0	0	0	0	0	0	-17.11395106656765	0	74.43860763753754	45.03324599917693	0	0	0	-17.11395106656765	0	74.43860763753754	45.03324599917693	0	0
20.06222222222385	-36.92797898153177	7.235837149768497	3.193019410674493	0	0.9399999999999999	0	41.91197556082601	-5.650001614548946	2.641584535310274	8.376037527300985	0.1461894331220066	-5.005448621020974	0	0	45.32493633951115	-10.01484167057162	0	60.50189138773626	1.055957208399999	-5.005448621020974	0	0	0	0	0	0	-17.11132505608247	0	74.43992858903171	45.03305127207083	0	0	0	-17.11132505608247	0	74.43992858903171	45.03305127207083	0	0
20.0666666666683	-36.97863236261212	7.246037599587471	3.264205694267366	0	0.9399999999999999	0	41.91175770085174	-5.700786623410234	2.609186607358207	8.298400892391047	0.1448344182226594	-5.005391097242321	0	0	45.32407727887742	-10.01471733364455	0	60.50083973073356	1.0559388535227	-5.005391097242321	0	0	0	0	0	0	-17.10840050484434	0	74.44140980121718	45.03282649636539	0	-2.480484247909372e-35	0	-17.10840050484434	0	74.44140980121718	45.03282649636539	0	-2.480484247909372e-35
20.07111111111274	-36.97923121174743	7.251390201682652	3.277987373094945	0	0.9399999999999999	0	41.91360100832689	-5.714028926238189	2.606136037777774	8.30129037999127	0.1448848492949789	-5.005366387274703	0	0	45.32370786880453	-10.01466377994544	0	60.50038881879462	1.055930983624729	-5.005366387274703	0	0	0	0	0	0	-17.10714752126814	0	74.44204674689972	45.03272958398937	0	0	0	-17.10714752126814	0	74.44204674689972	45.03272958398937	0	0
20.07555555555719	-36.97985927229758	7.267048568051205	3.284903589179927	0	0.9399999999999999	0	41.91458980398053	-5.729907246615134	2.606747354638801	8.310502490559282	0.1450456309554484	-5.00532715013135	0	0	45.32309120002123	-10.014577482904	0	60.49963457977667	1.055917819670519	-5.00532715013135	0	0	0	0	0	0	-17.1050412123703	0	74.44311002030628	45.03257181607594	0	0	0	-17.1050412123703	0	74.44311002030628	45.03257181607594	0	0
20.08000000000163	-36.98163641307445	7.2777288777195	3.297704757837665	0	0.9399999999999999	0	41.91695610430074	-5.745465802497566	2.603767564207827	8.31524861381769	0.1451284664330132	-5.005299649760492	0	0	45.3226786889412	-10.0145178673509	0	60.49912991695982	1.055909011642753	-5.005299649760492	0	0	0	0	0	0	-17.10363909297943	0	74.44382128161156	45.03246389211593	0	0	0	-17.10363909297943	0	74.44382128161156	45.03246389211593	0	0
20.08444444444608	-36.97422927935113	7.27672632293358	3.322800002923188	0	0.9399999999999999	0	41.92505900088229	-5.762793012734189	2.583200761296933	8.3516992127085	0.1457646493979816	-5.005256174496287	0	0	45.32200130252029	-10.01442253075808	0	60.4983003822743	1.055894533531231	-5.005256174496287	0	0	0	0	0	0	-17.10132586015597	0	74.44498924594382	45.03228993638612	0	0	0	-17.10132586015597	0	74.44498924594382	45.03228993638612	0	0
